<svg xmlns="http://www.w3.org/2000/svg" version="1.0" viewBox="0 0 242.28999 241">
  <g fill="none">
    <path d="M156.61747012 216.96063093c-56.94793267 20.722134-120.76121888-4.71876768-146.08652307-58.2419973-25.32530419-53.52419717-3.5301818-116.88165987 49.89656954-145.04623001C113.85526798-14.49119897 180.6977102 2.1401108 213.45139692 51.74861127c32.75368672 49.60753292 20.25104287 115.27745303-28.62147393 150.33972561l-28.21245287 14.87229405z"/>
    <path stroke="#2094fa" stroke-linecap="round" stroke-linejoin="round" stroke-width="10.5" d="M296.857 395.789c2.857-10.715 15.714-29.286 34.286 18.571 18.571 47.857 15.714 95 38.571 73.571" transform="matrix(1.00005 0 0 .96756 -211.32647802 -306.75001553)"/>
    <path stroke="#2094fa" stroke-linecap="round" stroke-width="12.34027434" d="m335.315 433.759-36.202 55.488" transform="matrix(1.00005 0 0 .96756 -211.32647802 -306.75001553)"/>
    <path stroke="#2094fa" stroke-width="13.5" d="M295.93935 419.7269c0 60.91335-50.42004 110.35027-112.54473 110.35027S70.849892 480.64025 70.849892 419.7269c0-60.91335 50.420038-110.35027 112.544728-110.35027 62.12469 0 112.54473 49.43692 112.54473 110.35027z" transform="matrix(1.00005 0 0 .96756 -62.095133 -284.30405)"/>
  </g>
</svg>
